<svg width="122" height="41" viewBox="0 0 122 41" fill="none" xmlns="http://www.w3.org/2000/svg">
<path d="M12.9746 33.0918C13.2559 33.1797 13.5371 33.2412 13.8184 33.2764C14.0996 33.2939 14.3809 33.3027 14.6621 33.3027C15.3652 33.3027 16.042 33.2061 16.6924 33.0127C17.3428 32.8193 17.9492 32.5469 18.5117 32.1953C19.0918 31.8262 19.6016 31.3867 20.041 30.877C20.498 30.3496 20.8672 29.7695 21.1484 29.1367L26.4219 34.4365C25.7539 35.3857 24.9805 36.2383 24.1016 36.9941C23.2402 37.75 22.2998 38.3916 21.2803 38.9189C20.2783 39.4463 19.2148 39.8418 18.0898 40.1055C16.9824 40.3867 15.8398 40.5273 14.6621 40.5273C12.6758 40.5273 10.8037 40.1582 9.0459 39.4199C7.30566 38.6816 5.77637 37.6533 4.45801 36.335C3.15723 35.0166 2.12891 33.4521 1.37305 31.6416C0.617188 29.8135 0.239258 27.8096 0.239258 25.6299C0.239258 23.3975 0.617188 21.3584 1.37305 19.5127C2.12891 17.667 3.15723 16.0938 4.45801 14.793C5.77637 13.4922 7.30566 12.4814 9.0459 11.7607C10.8037 11.04 12.6758 10.6797 14.6621 10.6797C15.8398 10.6797 16.9912 10.8203 18.1162 11.1016C19.2412 11.3828 20.3047 11.7871 21.3066 12.3145C22.3262 12.8418 23.2754 13.4922 24.1543 14.2656C25.0332 15.0215 25.8066 15.874 26.4746 16.8232L12.9746 33.0918ZM16.666 18.2471C16.332 18.124 15.998 18.0449 15.6641 18.0098C15.3477 17.9746 15.0137 17.957 14.6621 17.957C13.6777 17.957 12.7461 18.1416 11.8672 18.5107C11.0059 18.8623 10.25 19.3721 9.59961 20.04C8.9668 20.708 8.46582 21.5166 8.09668 22.4658C7.72754 23.3975 7.54297 24.4521 7.54297 25.6299C7.54297 25.8936 7.55176 26.1924 7.56934 26.5264C7.60449 26.8604 7.64844 27.2031 7.70117 27.5547C7.77148 27.8887 7.85059 28.2139 7.93848 28.5303C8.02637 28.8467 8.14062 29.1279 8.28125 29.374L16.666 18.2471ZM57.1924 40H55.4521L52.6572 36.124C51.9717 36.7393 51.2422 37.3193 50.4688 37.8643C49.7129 38.3916 48.9131 38.8574 48.0693 39.2617C47.2256 39.6484 46.3555 39.9561 45.459 40.1846C44.5801 40.4131 43.6836 40.5273 42.7695 40.5273C40.7832 40.5273 38.9111 40.1582 37.1533 39.4199C35.4131 38.6641 33.8838 37.627 32.5654 36.3086C31.2646 34.9727 30.2363 33.3994 29.4805 31.5889C28.7246 29.7607 28.3467 27.7744 28.3467 25.6299C28.3467 23.5029 28.7246 21.5254 29.4805 19.6973C30.2363 17.8691 31.2646 16.2871 32.5654 14.9512C33.8838 13.6152 35.4131 12.5693 37.1533 11.8135C38.9111 11.0576 40.7832 10.6797 42.7695 10.6797C43.4023 10.6797 44.0527 10.7324 44.7207 10.8379C45.4062 10.9434 46.0654 11.1191 46.6982 11.3652C47.3486 11.5938 47.9551 11.9014 48.5176 12.2881C49.0801 12.6748 49.5547 13.1494 49.9414 13.7119V0.52832H57.1924V40ZM49.9414 25.6299C49.9414 24.6455 49.748 23.6963 49.3613 22.7822C48.9922 21.8506 48.4824 21.0332 47.832 20.3301C47.1816 19.6094 46.417 19.0381 45.5381 18.6162C44.6768 18.1768 43.7539 17.957 42.7695 17.957C41.7852 17.957 40.8535 18.1328 39.9746 18.4844C39.1133 18.8359 38.3574 19.3457 37.707 20.0137C37.0742 20.6641 36.5732 21.4639 36.2041 22.4131C35.835 23.3623 35.6504 24.4346 35.6504 25.6299C35.6504 26.667 35.835 27.6514 36.2041 28.583C36.5732 29.5146 37.0742 30.332 37.707 31.0352C38.3574 31.7383 39.1133 32.292 39.9746 32.6963C40.8535 33.1006 41.7852 33.3027 42.7695 33.3027C43.7539 33.3027 44.6768 33.0918 45.5381 32.6699C46.417 32.2305 47.1816 31.6592 47.832 30.9561C48.4824 30.2354 48.9922 29.418 49.3613 28.5039C49.748 27.5723 49.9414 26.6143 49.9414 25.6299ZM89.9932 25.6299C89.9932 27.7393 89.6152 29.708 88.8594 31.5361C88.1035 33.3467 87.0752 34.9199 85.7744 36.2559C84.4736 37.5742 82.9443 38.6201 81.1865 39.3936C79.4463 40.1494 77.5742 40.5273 75.5703 40.5273C73.584 40.5273 71.7119 40.1494 69.9541 39.3936C68.2139 38.6201 66.6846 37.5742 65.3662 36.2559C64.0654 34.9199 63.0371 33.3467 62.2812 31.5361C61.5254 29.708 61.1475 27.7393 61.1475 25.6299C61.1475 23.4854 61.5254 21.499 62.2812 19.6709C63.0371 17.8428 64.0654 16.2695 65.3662 14.9512C66.6846 13.6152 68.2139 12.5693 69.9541 11.8135C71.7119 11.0576 73.584 10.6797 75.5703 10.6797C77.5742 10.6797 79.4463 11.04 81.1865 11.7607C82.9443 12.4639 84.4736 13.4746 85.7744 14.793C87.0752 16.0938 88.1035 17.667 88.8594 19.5127C89.6152 21.3408 89.9932 23.3799 89.9932 25.6299ZM82.7422 25.6299C82.7422 24.4697 82.5488 23.4238 82.1621 22.4922C81.793 21.543 81.2832 20.7344 80.6328 20.0664C79.9824 19.3809 79.2178 18.8623 78.3389 18.5107C77.4775 18.1416 76.5547 17.957 75.5703 17.957C74.5859 17.957 73.6543 18.1416 72.7754 18.5107C71.9141 18.8623 71.1582 19.3809 70.5078 20.0664C69.875 20.7344 69.374 21.543 69.0049 22.4922C68.6357 23.4238 68.4512 24.4697 68.4512 25.6299C68.4512 26.7197 68.6357 27.7305 69.0049 28.6621C69.374 29.5938 69.875 30.4023 70.5078 31.0879C71.1582 31.7734 71.9141 32.3184 72.7754 32.7227C73.6543 33.1094 74.5859 33.3027 75.5703 33.3027C76.5547 33.3027 77.4775 33.1182 78.3389 32.749C79.2178 32.3799 79.9824 31.8613 80.6328 31.1934C81.2832 30.5254 81.793 29.7168 82.1621 28.7676C82.5488 27.8184 82.7422 26.7725 82.7422 25.6299ZM121.265 25.6299C121.265 27.7393 120.887 29.708 120.131 31.5361C119.375 33.3467 118.347 34.9199 117.046 36.2559C115.745 37.5742 114.216 38.6201 112.458 39.3936C110.718 40.1494 108.846 40.5273 106.842 40.5273C104.855 40.5273 102.983 40.1494 101.226 39.3936C99.4854 38.6201 97.9561 37.5742 96.6377 36.2559C95.3369 34.9199 94.3086 33.3467 93.5527 31.5361C92.7969 29.708 92.4189 27.7393 92.4189 25.6299C92.4189 23.4854 92.7969 21.499 93.5527 19.6709C94.3086 17.8428 95.3369 16.2695 96.6377 14.9512C97.9561 13.6152 99.4854 12.5693 101.226 11.8135C102.983 11.0576 104.855 10.6797 106.842 10.6797C108.846 10.6797 110.718 11.04 112.458 11.7607C114.216 12.4639 115.745 13.4746 117.046 14.793C118.347 16.0938 119.375 17.667 120.131 19.5127C120.887 21.3408 121.265 23.3799 121.265 25.6299ZM114.014 25.6299C114.014 24.4697 113.82 23.4238 113.434 22.4922C113.064 21.543 112.555 20.7344 111.904 20.0664C111.254 19.3809 110.489 18.8623 109.61 18.5107C108.749 18.1416 107.826 17.957 106.842 17.957C105.857 17.957 104.926 18.1416 104.047 18.5107C103.186 18.8623 102.43 19.3809 101.779 20.0664C101.146 20.7344 100.646 21.543 100.276 22.4922C99.9072 23.4238 99.7227 24.4697 99.7227 25.6299C99.7227 26.7197 99.9072 27.7305 100.276 28.6621C100.646 29.5938 101.146 30.4023 101.779 31.0879C102.43 31.7734 103.186 32.3184 104.047 32.7227C104.926 33.1094 105.857 33.3027 106.842 33.3027C107.826 33.3027 108.749 33.1182 109.61 32.749C110.489 32.3799 111.254 31.8613 111.904 31.1934C112.555 30.5254 113.064 29.7168 113.434 28.7676C113.82 27.8184 114.014 26.7725 114.014 25.6299Z" fill="#0056D2"/>
</svg>
